<svg xmlns="http://www.w3.org/2000/svg" width="24" height="24" viewBox="0 0 24 24" fill="none">
  <path d="M12 21L10.55 19.7C8.86667 18.1833 7.475 16.875 6.375 15.775C5.275 14.675 4.4 13.6873 3.75 12.812C3.1 11.9367 2.646 11.1327 2.388 10.4C2.13 9.66733 2.00067 8.91733 2 8.15C2 6.58333 2.525 5.275 3.575 4.225C4.625 3.175 5.93333 2.65 7.5 2.65C8.36667 2.65 9.19167 2.83333 9.975 3.2C10.7583 3.56667 11.4333 4.08333 12 4.75C12.5667 4.08333 13.2417 3.56667 14.025 3.2C14.8083 2.83333 15.6333 2.65 16.5 2.65C18.0667 2.65 19.375 3.175 20.425 4.225C21.475 5.275 22 6.58333 22 8.15C22 8.91667 21.871 9.66667 21.613 10.4C21.355 11.1333 20.9007 11.9373 20.25 12.812C19.5993 13.6867 18.7243 14.6743 17.625 15.775C16.5257 16.8757 15.134 18.184 13.45 19.7L12 21Z" fill="currentColor"/>
</svg>